<svg width="460" height="17" viewBox="0 0 460 17" fill="none" xmlns="http://www.w3.org/2000/svg">
<path d="M0.0509949 2.42801C3.32799 2.42601 6.604 3.37301 9.45 5.27001C12.581 7.35801 16.068 9.68201 19.199 11.77C24.884 15.56 32.291 15.56 37.976 11.77C41.107 9.68201 44.594 7.35801 47.725 5.27001C50.686 3.29601 54.113 2.35101 57.522 2.43301L57.579 2.42801C60.855 2.42601 64.131 3.37301 66.977 5.27001C70.108 7.35801 73.595 9.68201 76.726 11.77C82.412 15.56 89.818 15.56 95.503 11.77C98.634 9.68201 102.122 7.35801 105.253 5.27001C108.213 3.29601 111.641 2.35101 115.049 2.43301V2.42801C118.325 2.42601 121.602 3.37301 124.447 5.27001C127.578 7.35801 131.065 9.68201 134.196 11.77C139.882 15.56 147.288 15.56 152.974 11.77C156.104 9.68201 159.592 7.35801 162.723 5.27001C165.684 3.29601 169.111 2.35101 172.519 2.43301L172.576 2.42801C175.852 2.42601 179.128 3.37301 181.974 5.27001C185.105 7.35801 188.593 9.68201 191.724 11.77C197.409 15.56 204.816 15.56 210.501 11.77C213.632 9.68201 217.12 7.35801 220.25 5.27001C223.211 3.29601 226.638 2.35101 230.047 2.43301L230.056 2.42801C233.332 2.42601 236.609 3.37301 239.455 5.27001C242.586 7.35801 246.073 9.68201 249.204 11.77C254.89 15.56 262.296 15.56 267.982 11.77C271.112 9.68201 274.599 7.35801 277.731 5.27001C280.692 3.29601 284.119 2.35101 287.526 2.43301L287.584 2.42801C290.86 2.42601 294.136 3.37301 296.982 5.27001C300.113 7.35801 303.601 9.68201 306.732 11.77C312.417 15.56 319.824 15.56 325.508 11.77C328.64 9.68201 332.127 7.35801 335.257 5.27001C338.218 3.29601 341.646 2.35101 345.054 2.43301V2.42801C348.33 2.42601 351.606 3.37301 354.452 5.27001C357.583 7.35801 361.071 9.68201 364.202 11.77C369.887 15.56 377.294 15.56 382.979 11.77C386.11 9.68201 389.596 7.35801 392.728 5.27001C395.689 3.29601 399.116 2.35101 402.525 2.43301L402.581 2.42801C405.857 2.42601 409.134 3.37301 411.98 5.27001C415.11 7.35801 418.598 9.68201 421.729 11.77C427.414 15.56 434.821 15.56 440.505 11.77C443.637 9.68201 447.124 7.35801 450.256 5.27001C453.217 3.29601 456.644 2.35101 460.051 2.43301" stroke="#F20873" stroke-width="4" stroke-miterlimit="10" stroke-linejoin="round"/>
</svg>
